<svg xmlns="http://www.w3.org/2000/svg" viewBox="0 0 320 82"><path fill="#fff" fill-rule="evenodd" d="M268.75,37.12 L267.38,40.62 L267.50,57.38 L268.25,59.25 L269.88,61.12 L272.25,62.00 L291.88,61.88 L293.62,61.12 L295.38,59.50 L296.25,57.00 L296.25,40.75 L295.62,38.38 L294.12,36.25 L291.62,35.12 L273.00,35.12 L270.75,35.62Z M275.38,42.75 L276.12,42.12 L277.50,41.88 L285.12,41.88 L287.88,42.25 L288.88,44.12 L289.00,49.88 L288.88,52.88 L288.50,54.25 L287.00,55.12 L276.88,55.12 L275.62,54.75 L275.00,53.75 L275.00,43.50Z M175.25,37.38 L174.12,39.50 L174.12,61.38 L174.50,61.88 L179.75,62.00 L180.88,61.62 L181.25,60.88 L181.25,56.12 L182.00,55.12 L182.75,54.88 L193.62,55.00 L194.38,55.62 L194.62,56.38 L194.50,61.25 L194.75,61.62 L196.00,62.00 L200.88,62.00 L201.62,61.62 L201.75,40.00 L201.12,38.50 L199.75,36.50 L197.88,35.38 L196.50,35.12 L178.75,35.12 L176.50,36.25Z M181.38,43.50 L182.12,42.38 L183.62,41.88 L193.50,42.12 L194.12,42.75 L194.62,44.38 L194.50,48.50 L194.00,49.12 L193.12,49.38 L182.25,49.38 L181.50,48.88 L181.12,48.00Z M146.38,35.75 L144.50,37.75 L143.62,40.88 L143.62,57.00 L144.25,59.00 L145.50,60.62 L146.62,61.62 L148.12,61.88 L169.00,62.00 L170.12,61.75 L170.62,60.88 L170.62,56.88 L170.12,55.25 L152.75,55.12 L152.00,54.88 L151.00,53.62 L150.88,44.88 L151.38,42.88 L152.62,42.00 L169.88,41.88 L170.62,41.25 L170.62,36.12 L170.38,35.50 L169.75,35.12 L148.75,35.12Z M112.50,37.25 L111.38,39.88 L111.25,54.25 L111.38,57.25 L112.25,59.75 L114.38,61.62 L115.88,61.88 L133.75,62.00 L137.12,61.50 L139.25,59.38 L140.00,57.25 L140.00,40.38 L139.38,38.12 L137.50,35.88 L135.00,35.12 L116.38,35.12 L114.38,35.62Z M119.62,42.25 L122.12,41.88 L129.38,41.88 L131.62,42.25 L132.25,43.00 L132.62,44.25 L132.62,53.25 L132.25,54.25 L131.00,55.12 L120.50,55.12 L119.38,54.75 L118.75,53.62 L118.75,43.88 L119.12,42.75Z M79.75,35.50 L79.62,61.12 L80.12,61.75 L80.75,62.00 L107.00,62.00 L107.62,61.50 L107.75,55.62 L107.12,55.12 L87.88,55.00 L87.12,53.88 L87.25,35.62 L86.62,35.12 L80.38,35.12Z M263.50,35.12 L236.38,35.12 L236.00,35.50 L235.88,41.12 L236.25,41.75 L245.50,41.88 L246.25,42.62 L246.25,61.00 L246.75,61.75 L252.88,62.00 L253.88,61.38 L254.00,42.75 L254.38,42.12 L255.12,41.88 L263.62,41.75 L264.00,41.12 L264.00,35.75Z M231.88,35.25 L231.12,35.00 L226.12,35.12 L225.38,35.88 L225.38,52.50 L225.00,53.75 L223.62,54.62 L213.88,54.62 L212.62,53.75 L212.25,52.62 L212.25,35.75 L211.50,35.12 L206.12,35.12 L205.38,35.62 L205.38,57.62 L206.38,59.62 L208.00,61.25 L210.88,62.00 L227.12,62.00 L229.25,61.38 L231.50,59.38 L232.25,57.38 L232.25,35.62Z M296.62,21.00 L296.25,20.62 L295.50,20.62 L293.12,22.62 L292.50,22.25 L292.00,21.38 L291.25,21.50 L291.00,22.50 L289.75,24.50 L287.88,26.00 L287.25,25.88 L286.75,25.25 L287.25,21.88 L287.12,21.00 L285.88,20.75 L282.75,21.00 L281.38,22.38 L279.75,25.12 L277.50,26.88 L276.12,26.75 L275.00,25.38 L275.12,23.50 L276.50,21.12 L275.75,21.12 L274.25,22.62 L273.62,25.38 L274.25,27.00 L274.88,27.62 L276.00,28.00 L277.25,27.88 L279.75,26.50 L280.38,26.50 L281.25,27.75 L281.88,27.88 L282.88,27.50 L284.12,26.12 L285.00,25.88 L285.50,26.00 L286.25,27.12 L286.88,27.50 L288.12,27.12 L289.25,26.12 L290.00,26.12 L290.50,27.38 L291.25,27.62 L291.62,27.38 L293.75,23.00 L294.62,22.38 L296.38,22.12Z M284.25,21.38 L285.38,22.25 L285.38,23.25 L283.38,26.12 L282.25,26.12 L281.75,25.50 L281.75,24.38 L282.25,22.88 L283.25,21.62Z M270.75,23.00 L270.12,23.12 L269.62,24.12 L268.00,25.88 L267.25,26.00 L266.25,25.25 L266.62,21.00 L266.38,20.75 L264.50,20.62 L262.62,20.75 L261.00,22.12 L260.38,23.12 L259.88,25.38 L260.12,26.88 L260.50,27.50 L261.88,27.75 L263.25,26.62 L264.00,25.50 L264.62,25.50 L265.75,27.25 L267.00,27.38 L269.75,25.00Z M263.75,21.38 L264.88,22.25 L264.88,23.12 L263.25,25.75 L262.00,26.25 L261.12,25.50 L261.75,22.75 L262.62,21.62Z M257.12,20.38 L256.75,20.00 L254.38,20.00 L253.62,19.25 L253.62,18.25 L252.62,18.38 L251.75,19.88 L250.25,20.38 L251.62,21.75 L249.88,25.62 L249.38,26.00 L248.75,26.00 L248.12,25.50 L247.75,21.88 L247.50,21.25 L246.50,20.62 L245.50,21.00 L243.62,23.12 L243.12,22.88 L242.88,21.62 L242.12,21.25 L241.00,23.75 L237.50,26.88 L236.12,26.75 L235.62,26.38 L235.38,25.50 L236.00,24.88 L237.25,24.62 L238.75,23.38 L239.12,22.62 L239.12,21.62 L238.62,21.00 L237.88,20.75 L235.75,21.00 L235.00,21.50 L234.00,23.12 L233.62,25.38 L234.25,27.00 L235.50,27.88 L237.12,27.75 L241.38,25.38 L241.75,25.75 L241.62,27.25 L242.25,27.75 L242.75,27.38 L243.75,24.75 L244.88,23.00 L246.00,22.25 L246.62,22.88 L246.88,26.38 L247.50,27.50 L248.75,27.50 L250.38,26.12 L251.88,27.62 L252.88,27.88 L253.88,27.50 L254.75,26.38 L254.50,26.12 L253.00,26.25 L252.25,25.62 L252.75,21.50 L253.38,20.88 L256.12,20.88Z M237.25,21.00 L237.88,22.00 L237.75,22.75 L236.88,23.75 L235.75,24.00 L235.38,23.62 L235.50,22.62Z M230.75,18.25 L230.12,18.00 L227.25,18.00 L225.75,18.50 L224.12,19.62 L224.00,20.62 L225.12,20.62 L225.62,21.12 L225.62,22.50 L224.62,27.00 L224.75,28.38 L225.38,28.50 L225.75,28.00 L225.88,26.38 L226.88,24.00 L227.62,24.00 L228.12,24.50 L228.62,25.75 L230.00,27.50 L231.12,27.62 L231.88,27.00 L231.75,26.50 L230.62,26.12 L230.00,25.50 L229.25,24.00 L229.25,23.25 L231.38,21.25 L231.75,20.50 L231.50,19.00Z M229.38,18.88 L230.25,19.75 L230.12,21.12 L229.25,22.00 L227.50,22.50 L227.00,21.88 L226.88,19.50 L227.75,18.88Z M7.88,7.75 L8.00,8.50 L10.00,8.88 L11.50,9.75 L12.75,12.38 L12.88,15.38 L12.12,19.62 L12.00,23.50 L12.38,25.62 L15.00,28.88 L15.00,30.12 L14.25,31.75 L13.75,34.50 L13.38,39.50 L14.12,44.75 L15.25,48.50 L15.25,49.50 L14.62,50.62 L8.25,57.25 L8.00,58.38 L8.38,58.88 L15.12,63.38 L16.25,63.50 L17.50,62.62 L21.12,58.62 L21.75,58.38 L22.12,58.62 L22.38,60.38 L24.50,64.12 L25.38,64.88 L33.00,63.38 L33.75,62.75 L33.75,61.88 L31.62,56.12 L31.75,55.25 L32.38,54.88 L33.25,54.88 L35.62,55.75 L39.75,56.12 L40.38,56.75 L40.38,57.50 L39.00,59.38 L39.12,60.25 L47.38,64.75 L48.38,64.50 L49.38,63.50 L52.12,59.62 L52.38,58.25 L51.75,57.25 L51.75,56.50 L52.12,56.12 L52.75,56.25 L54.88,59.00 L57.88,62.12 L61.00,64.75 L61.88,64.88 L62.88,64.50 L67.62,61.12 L67.75,59.88 L60.38,50.38 L60.00,49.75 L60.00,48.88 L61.50,46.75 L62.75,44.00 L63.38,42.00 L63.75,38.12 L64.50,37.50 L68.38,37.88 L70.38,37.75 L70.62,37.25 L69.38,35.88 L69.38,35.38 L73.38,33.62 L75.62,30.25 L76.50,27.25 L76.38,23.25 L75.38,20.50 L74.25,18.50 L73.25,17.50 L70.00,15.38 L65.38,14.25 L62.12,14.25 L58.12,11.62 L57.25,11.75 L56.62,13.75 L56.75,16.00 L57.25,17.62 L58.38,18.88 L59.88,19.12 L62.38,17.88 L63.50,17.88 L66.00,19.00 L67.75,20.38 L69.00,22.25 L69.12,24.00 L68.62,24.88 L67.75,25.50 L67.00,25.62 L61.50,21.38 L56.38,19.12 L55.00,17.75 L54.50,15.62 L53.50,14.25 L52.12,14.12 L50.38,14.62 L47.88,13.12 L45.00,12.50 L43.00,12.50 L41.00,13.25 L39.75,14.88 L39.88,17.38 L39.38,18.50 L35.38,23.62 L35.38,26.50 L37.12,32.12 L39.38,35.25 L41.38,36.62 L44.88,37.62 L46.38,37.62 L48.88,36.62 L49.62,36.88 L49.25,37.75 L47.75,38.12 L46.75,38.75 L44.00,39.00 L40.62,37.88 L37.88,35.38 L34.88,29.75 L33.38,25.38 L31.75,24.00 L29.50,23.38 L25.12,23.50 L22.12,24.25 L18.25,26.25 L17.25,27.12 L16.38,26.88 L14.75,25.75 L13.88,24.38 L13.25,22.12 L14.00,15.75 L13.62,12.38 L13.00,11.50 L12.75,10.38 L11.25,9.00 L9.12,7.50Z M33.75,49.50 L33.12,51.00 L30.88,53.00 L29.38,53.25 L28.88,52.75 L29.50,51.88 L31.38,50.88 L33.12,49.12Z M57.50,24.88 L59.38,24.75 L61.38,26.25 L62.12,27.25 L62.00,28.62 L61.25,29.38 L60.50,29.62 L59.62,29.50 L58.62,28.88 L57.88,28.00 L57.75,26.62 L57.12,26.00Z M51.38,18.00 L51.62,17.75 L52.75,17.88 L53.88,19.00 L54.00,19.88 L53.50,20.38 L52.75,20.12 L51.62,19.00Z"/></svg>